<?xml version="1.0" encoding="UTF-8" ?>
<svg version="1.1" width="42" height="11" xmlns="http://www.w3.org/2000/svg" shape-rendering="crispEdges">
<rect x="0" y="0" width="1" height="1" fill="#596070" />
<rect x="1" y="0" width="1" height="1" fill="#596070" />
<rect x="2" y="0" width="1" height="1" fill="#596070" />
<rect x="3" y="0" width="1" height="1" fill="#596070" />
<rect x="4" y="0" width="1" height="1" fill="#596070" />
<rect x="5" y="0" width="1" height="1" fill="#596070" />
<rect x="6" y="0" width="1" height="1" fill="#596070" />
<rect x="9" y="0" width="1" height="1" fill="#596070" />
<rect x="10" y="0" width="1" height="1" fill="#596070" />
<rect x="11" y="0" width="1" height="1" fill="#596070" />
<rect x="12" y="0" width="1" height="1" fill="#596070" />
<rect x="13" y="0" width="1" height="1" fill="#596070" />
<rect x="14" y="0" width="1" height="1" fill="#596070" />
<rect x="17" y="0" width="1" height="1" fill="#596070" />
<rect x="18" y="0" width="1" height="1" fill="#596070" />
<rect x="19" y="0" width="1" height="1" fill="#596070" />
<rect x="20" y="0" width="1" height="1" fill="#596070" />
<rect x="21" y="0" width="1" height="1" fill="#596070" />
<rect x="22" y="0" width="1" height="1" fill="#596070" />
<rect x="23" y="0" width="1" height="1" fill="#596070" />
<rect x="26" y="0" width="1" height="1" fill="#596070" />
<rect x="27" y="0" width="1" height="1" fill="#596070" />
<rect x="28" y="0" width="1" height="1" fill="#596070" />
<rect x="30" y="0" width="1" height="1" fill="#596070" />
<rect x="31" y="0" width="1" height="1" fill="#596070" />
<rect x="32" y="0" width="1" height="1" fill="#596070" />
<rect x="35" y="0" width="1" height="1" fill="#596070" />
<rect x="36" y="0" width="1" height="1" fill="#596070" />
<rect x="37" y="0" width="1" height="1" fill="#596070" />
<rect x="38" y="0" width="1" height="1" fill="#596070" />
<rect x="39" y="0" width="1" height="1" fill="#596070" />
<rect x="40" y="0" width="1" height="1" fill="#596070" />
<rect x="41" y="0" width="1" height="1" fill="#596070" />
<rect x="0" y="1" width="1" height="1" fill="#596070" />
<rect x="6" y="1" width="1" height="1" fill="#596070" />
<rect x="9" y="1" width="1" height="1" fill="#596070" />
<rect x="14" y="1" width="1" height="1" fill="#596070" />
<rect x="17" y="1" width="1" height="1" fill="#596070" />
<rect x="18" y="1" width="1" height="1" fill="#1F1F2B" />
<rect x="19" y="1" width="1" height="1" fill="#1F1F2B" />
<rect x="20" y="1" width="1" height="1" fill="#1F1F2B" />
<rect x="21" y="1" width="1" height="1" fill="#1F1F2B" />
<rect x="22" y="1" width="1" height="1" fill="#1F1F2B" />
<rect x="23" y="1" width="1" height="1" fill="#596070" />
<rect x="26" y="1" width="1" height="1" fill="#596070" />
<rect x="27" y="1" width="1" height="1" fill="#1F1F2B" />
<rect x="28" y="1" width="1" height="1" fill="#596070" />
<rect x="30" y="1" width="1" height="1" fill="#596070" />
<rect x="31" y="1" width="1" height="1" fill="#1F1F2B" />
<rect x="32" y="1" width="1" height="1" fill="#596070" />
<rect x="35" y="1" width="1" height="1" fill="#596070" />
<rect x="41" y="1" width="1" height="1" fill="#596070" />
<rect x="0" y="2" width="1" height="1" fill="#596070" />
<rect x="2" y="2" width="1" height="1" fill="#596070" />
<rect x="3" y="2" width="1" height="1" fill="#596070" />
<rect x="4" y="2" width="1" height="1" fill="#596070" />
<rect x="6" y="2" width="1" height="1" fill="#596070" />
<rect x="9" y="2" width="1" height="1" fill="#596070" />
<rect x="11" y="2" width="1" height="1" fill="#596070" />
<rect x="12" y="2" width="1" height="1" fill="#596070" />
<rect x="14" y="2" width="1" height="1" fill="#596070" />
<rect x="17" y="2" width="1" height="1" fill="#596070" />
<rect x="23" y="2" width="1" height="1" fill="#596070" />
<rect x="26" y="2" width="1" height="1" fill="#596070" />
<rect x="28" y="2" width="1" height="1" fill="#596070" />
<rect x="30" y="2" width="1" height="1" fill="#596070" />
<rect x="32" y="2" width="1" height="1" fill="#596070" />
<rect x="35" y="2" width="1" height="1" fill="#596070" />
<rect x="36" y="2" width="1" height="1" fill="#596070" />
<rect x="37" y="2" width="1" height="1" fill="#596070" />
<rect x="39" y="2" width="1" height="1" fill="#596070" />
<rect x="40" y="2" width="1" height="1" fill="#596070" />
<rect x="41" y="2" width="1" height="1" fill="#596070" />
<rect x="0" y="3" width="1" height="1" fill="#596070" />
<rect x="2" y="3" width="1" height="1" fill="#1F1F2B" />
<rect x="3" y="3" width="1" height="1" fill="#1F1F2B" />
<rect x="4" y="3" width="1" height="1" fill="#1F1F2B" />
<rect x="6" y="3" width="1" height="1" fill="#596070" />
<rect x="9" y="3" width="1" height="1" fill="#596070" />
<rect x="11" y="3" width="1" height="1" fill="#1F1F2B" />
<rect x="12" y="3" width="1" height="1" fill="#1F1F2B" />
<rect x="14" y="3" width="1" height="1" fill="#596070" />
<rect x="17" y="3" width="1" height="1" fill="#596070" />
<rect x="19" y="3" width="1" height="1" fill="#596070" />
<rect x="20" y="3" width="1" height="1" fill="#596070" />
<rect x="21" y="3" width="1" height="1" fill="#596070" />
<rect x="23" y="3" width="1" height="1" fill="#596070" />
<rect x="26" y="3" width="1" height="1" fill="#596070" />
<rect x="28" y="3" width="1" height="1" fill="#596070" />
<rect x="30" y="3" width="1" height="1" fill="#596070" />
<rect x="32" y="3" width="1" height="1" fill="#596070" />
<rect x="35" y="3" width="1" height="1" fill="#1F1F2B" />
<rect x="36" y="3" width="1" height="1" fill="#1F1F2B" />
<rect x="37" y="3" width="1" height="1" fill="#596070" />
<rect x="39" y="3" width="1" height="1" fill="#596070" />
<rect x="40" y="3" width="1" height="1" fill="#1F1F2B" />
<rect x="41" y="3" width="1" height="1" fill="#1F1F2B" />
<rect x="0" y="4" width="1" height="1" fill="#596070" />
<rect x="6" y="4" width="1" height="1" fill="#596070" />
<rect x="9" y="4" width="1" height="1" fill="#596070" />
<rect x="14" y="4" width="1" height="1" fill="#596070" />
<rect x="17" y="4" width="1" height="1" fill="#596070" />
<rect x="19" y="4" width="1" height="1" fill="#596070" />
<rect x="20" y="4" width="1" height="1" fill="#1F1F2B" />
<rect x="21" y="4" width="1" height="1" fill="#596070" />
<rect x="23" y="4" width="1" height="1" fill="#596070" />
<rect x="26" y="4" width="1" height="1" fill="#596070" />
<rect x="28" y="4" width="1" height="1" fill="#596070" />
<rect x="30" y="4" width="1" height="1" fill="#596070" />
<rect x="32" y="4" width="1" height="1" fill="#596070" />
<rect x="37" y="4" width="1" height="1" fill="#596070" />
<rect x="39" y="4" width="1" height="1" fill="#596070" />
<rect x="0" y="5" width="1" height="1" fill="#596070" />
<rect x="2" y="5" width="1" height="1" fill="#596070" />
<rect x="3" y="5" width="1" height="1" fill="#596070" />
<rect x="4" y="5" width="1" height="1" fill="#596070" />
<rect x="6" y="5" width="1" height="1" fill="#596070" />
<rect x="9" y="5" width="1" height="1" fill="#596070" />
<rect x="12" y="5" width="1" height="1" fill="#596070" />
<rect x="13" y="5" width="1" height="1" fill="#596070" />
<rect x="14" y="5" width="1" height="1" fill="#596070" />
<rect x="17" y="5" width="1" height="1" fill="#596070" />
<rect x="19" y="5" width="1" height="1" fill="#596070" />
<rect x="21" y="5" width="1" height="1" fill="#596070" />
<rect x="23" y="5" width="1" height="1" fill="#596070" />
<rect x="26" y="5" width="1" height="1" fill="#596070" />
<rect x="28" y="5" width="1" height="1" fill="#596070" />
<rect x="30" y="5" width="1" height="1" fill="#596070" />
<rect x="32" y="5" width="1" height="1" fill="#596070" />
<rect x="37" y="5" width="1" height="1" fill="#596070" />
<rect x="39" y="5" width="1" height="1" fill="#596070" />
<rect x="0" y="6" width="1" height="1" fill="#596070" />
<rect x="2" y="6" width="1" height="1" fill="#596070" />
<rect x="3" y="6" width="1" height="1" fill="#1F1F2B" />
<rect x="4" y="6" width="1" height="1" fill="#596070" />
<rect x="6" y="6" width="1" height="1" fill="#596070" />
<rect x="9" y="6" width="1" height="1" fill="#596070" />
<rect x="12" y="6" width="1" height="1" fill="#1F1F2B" />
<rect x="13" y="6" width="1" height="1" fill="#1F1F2B" />
<rect x="14" y="6" width="1" height="1" fill="#596070" />
<rect x="17" y="6" width="1" height="1" fill="#596070" />
<rect x="19" y="6" width="1" height="1" fill="#596070" />
<rect x="20" y="6" width="1" height="1" fill="#596070" />
<rect x="21" y="6" width="1" height="1" fill="#596070" />
<rect x="23" y="6" width="1" height="1" fill="#596070" />
<rect x="26" y="6" width="1" height="1" fill="#596070" />
<rect x="28" y="6" width="1" height="1" fill="#596070" />
<rect x="29" y="6" width="1" height="1" fill="#596070" />
<rect x="30" y="6" width="1" height="1" fill="#596070" />
<rect x="32" y="6" width="1" height="1" fill="#596070" />
<rect x="37" y="6" width="1" height="1" fill="#596070" />
<rect x="39" y="6" width="1" height="1" fill="#596070" />
<rect x="0" y="7" width="1" height="1" fill="#596070" />
<rect x="2" y="7" width="1" height="1" fill="#596070" />
<rect x="4" y="7" width="1" height="1" fill="#596070" />
<rect x="6" y="7" width="1" height="1" fill="#596070" />
<rect x="9" y="7" width="1" height="1" fill="#596070" />
<rect x="11" y="7" width="1" height="1" fill="#596070" />
<rect x="12" y="7" width="1" height="1" fill="#596070" />
<rect x="14" y="7" width="1" height="1" fill="#596070" />
<rect x="17" y="7" width="1" height="1" fill="#596070" />
<rect x="19" y="7" width="1" height="1" fill="#1F1F2B" />
<rect x="20" y="7" width="1" height="1" fill="#1F1F2B" />
<rect x="21" y="7" width="1" height="1" fill="#1F1F2B" />
<rect x="23" y="7" width="1" height="1" fill="#596070" />
<rect x="26" y="7" width="1" height="1" fill="#596070" />
<rect x="28" y="7" width="1" height="1" fill="#1F1F2B" />
<rect x="29" y="7" width="1" height="1" fill="#1F1F2B" />
<rect x="30" y="7" width="1" height="1" fill="#1F1F2B" />
<rect x="32" y="7" width="1" height="1" fill="#596070" />
<rect x="37" y="7" width="1" height="1" fill="#596070" />
<rect x="39" y="7" width="1" height="1" fill="#596070" />
<rect x="0" y="8" width="1" height="1" fill="#596070" />
<rect x="2" y="8" width="1" height="1" fill="#596070" />
<rect x="4" y="8" width="1" height="1" fill="#596070" />
<rect x="6" y="8" width="1" height="1" fill="#596070" />
<rect x="9" y="8" width="1" height="1" fill="#596070" />
<rect x="11" y="8" width="1" height="1" fill="#1F1F2B" />
<rect x="12" y="8" width="1" height="1" fill="#1F1F2B" />
<rect x="14" y="8" width="1" height="1" fill="#596070" />
<rect x="17" y="8" width="1" height="1" fill="#596070" />
<rect x="23" y="8" width="1" height="1" fill="#596070" />
<rect x="26" y="8" width="1" height="1" fill="#596070" />
<rect x="32" y="8" width="1" height="1" fill="#596070" />
<rect x="37" y="8" width="1" height="1" fill="#596070" />
<rect x="39" y="8" width="1" height="1" fill="#596070" />
<rect x="0" y="9" width="1" height="1" fill="#596070" />
<rect x="1" y="9" width="1" height="1" fill="#596070" />
<rect x="2" y="9" width="1" height="1" fill="#596070" />
<rect x="4" y="9" width="1" height="1" fill="#596070" />
<rect x="5" y="9" width="1" height="1" fill="#596070" />
<rect x="6" y="9" width="1" height="1" fill="#596070" />
<rect x="9" y="9" width="1" height="1" fill="#596070" />
<rect x="10" y="9" width="1" height="1" fill="#596070" />
<rect x="11" y="9" width="1" height="1" fill="#596070" />
<rect x="12" y="9" width="1" height="1" fill="#596070" />
<rect x="13" y="9" width="1" height="1" fill="#596070" />
<rect x="14" y="9" width="1" height="1" fill="#596070" />
<rect x="17" y="9" width="1" height="1" fill="#596070" />
<rect x="18" y="9" width="1" height="1" fill="#596070" />
<rect x="19" y="9" width="1" height="1" fill="#596070" />
<rect x="20" y="9" width="1" height="1" fill="#596070" />
<rect x="21" y="9" width="1" height="1" fill="#596070" />
<rect x="22" y="9" width="1" height="1" fill="#596070" />
<rect x="23" y="9" width="1" height="1" fill="#596070" />
<rect x="26" y="9" width="1" height="1" fill="#596070" />
<rect x="27" y="9" width="1" height="1" fill="#596070" />
<rect x="28" y="9" width="1" height="1" fill="#596070" />
<rect x="29" y="9" width="1" height="1" fill="#596070" />
<rect x="30" y="9" width="1" height="1" fill="#596070" />
<rect x="31" y="9" width="1" height="1" fill="#596070" />
<rect x="32" y="9" width="1" height="1" fill="#596070" />
<rect x="37" y="9" width="1" height="1" fill="#596070" />
<rect x="38" y="9" width="1" height="1" fill="#596070" />
<rect x="39" y="9" width="1" height="1" fill="#596070" />
<rect x="0" y="10" width="1" height="1" fill="#1F1F2B" />
<rect x="1" y="10" width="1" height="1" fill="#1F1F2B" />
<rect x="2" y="10" width="1" height="1" fill="#1F1F2B" />
<rect x="4" y="10" width="1" height="1" fill="#1F1F2B" />
<rect x="5" y="10" width="1" height="1" fill="#1F1F2B" />
<rect x="6" y="10" width="1" height="1" fill="#1F1F2B" />
<rect x="9" y="10" width="1" height="1" fill="#1F1F2B" />
<rect x="10" y="10" width="1" height="1" fill="#1F1F2B" />
<rect x="11" y="10" width="1" height="1" fill="#1F1F2B" />
<rect x="12" y="10" width="1" height="1" fill="#1F1F2B" />
<rect x="13" y="10" width="1" height="1" fill="#1F1F2B" />
<rect x="14" y="10" width="1" height="1" fill="#1F1F2B" />
<rect x="17" y="10" width="1" height="1" fill="#1F1F2B" />
<rect x="18" y="10" width="1" height="1" fill="#1F1F2B" />
<rect x="19" y="10" width="1" height="1" fill="#1F1F2B" />
<rect x="20" y="10" width="1" height="1" fill="#1F1F2B" />
<rect x="21" y="10" width="1" height="1" fill="#1F1F2B" />
<rect x="22" y="10" width="1" height="1" fill="#1F1F2B" />
<rect x="23" y="10" width="1" height="1" fill="#1F1F2B" />
<rect x="26" y="10" width="1" height="1" fill="#1F1F2B" />
<rect x="27" y="10" width="1" height="1" fill="#1F1F2B" />
<rect x="28" y="10" width="1" height="1" fill="#1F1F2B" />
<rect x="29" y="10" width="1" height="1" fill="#1F1F2B" />
<rect x="30" y="10" width="1" height="1" fill="#1F1F2B" />
<rect x="31" y="10" width="1" height="1" fill="#1F1F2B" />
<rect x="32" y="10" width="1" height="1" fill="#1F1F2B" />
<rect x="37" y="10" width="1" height="1" fill="#1F1F2B" />
<rect x="38" y="10" width="1" height="1" fill="#1F1F2B" />
<rect x="39" y="10" width="1" height="1" fill="#1F1F2B" />
</svg>