<?xml version="1.0" encoding="UTF-8" ?>
<svg version="1.1" width="89" height="12" xmlns="http://www.w3.org/2000/svg" shape-rendering="crispEdges">
<rect x="1" y="0" width="1" height="1" fill="#596070" />
<rect x="2" y="0" width="1" height="1" fill="#596070" />
<rect x="3" y="0" width="1" height="1" fill="#596070" />
<rect x="4" y="0" width="1" height="1" fill="#596070" />
<rect x="5" y="0" width="1" height="1" fill="#596070" />
<rect x="6" y="0" width="1" height="1" fill="#596070" />
<rect x="7" y="0" width="1" height="1" fill="#596070" />
<rect x="8" y="0" width="1" height="1" fill="#596070" />
<rect x="9" y="0" width="1" height="1" fill="#596070" />
<rect x="10" y="0" width="1" height="1" fill="#596070" />
<rect x="11" y="0" width="1" height="1" fill="#596070" />
<rect x="12" y="0" width="1" height="1" fill="#596070" />
<rect x="13" y="0" width="1" height="1" fill="#596070" />
<rect x="14" y="0" width="1" height="1" fill="#596070" />
<rect x="15" y="0" width="1" height="1" fill="#596070" />
<rect x="16" y="0" width="1" height="1" fill="#596070" />
<rect x="17" y="0" width="1" height="1" fill="#596070" />
<rect x="18" y="0" width="1" height="1" fill="#596070" />
<rect x="19" y="0" width="1" height="1" fill="#596070" />
<rect x="20" y="0" width="1" height="1" fill="#596070" />
<rect x="21" y="0" width="1" height="1" fill="#596070" />
<rect x="22" y="0" width="1" height="1" fill="#596070" />
<rect x="23" y="0" width="1" height="1" fill="#596070" />
<rect x="24" y="0" width="1" height="1" fill="#596070" />
<rect x="25" y="0" width="1" height="1" fill="#596070" />
<rect x="26" y="0" width="1" height="1" fill="#596070" />
<rect x="27" y="0" width="1" height="1" fill="#596070" />
<rect x="28" y="0" width="1" height="1" fill="#596070" />
<rect x="29" y="0" width="1" height="1" fill="#596070" />
<rect x="30" y="0" width="1" height="1" fill="#596070" />
<rect x="31" y="0" width="1" height="1" fill="#596070" />
<rect x="32" y="0" width="1" height="1" fill="#596070" />
<rect x="33" y="0" width="1" height="1" fill="#596070" />
<rect x="34" y="0" width="1" height="1" fill="#596070" />
<rect x="35" y="0" width="1" height="1" fill="#596070" />
<rect x="36" y="0" width="1" height="1" fill="#596070" />
<rect x="37" y="0" width="1" height="1" fill="#596070" />
<rect x="38" y="0" width="1" height="1" fill="#596070" />
<rect x="39" y="0" width="1" height="1" fill="#596070" />
<rect x="40" y="0" width="1" height="1" fill="#596070" />
<rect x="41" y="0" width="1" height="1" fill="#596070" />
<rect x="42" y="0" width="1" height="1" fill="#596070" />
<rect x="43" y="0" width="1" height="1" fill="#596070" />
<rect x="44" y="0" width="1" height="1" fill="#596070" />
<rect x="45" y="0" width="1" height="1" fill="#596070" />
<rect x="46" y="0" width="1" height="1" fill="#596070" />
<rect x="47" y="0" width="1" height="1" fill="#596070" />
<rect x="48" y="0" width="1" height="1" fill="#596070" />
<rect x="49" y="0" width="1" height="1" fill="#596070" />
<rect x="50" y="0" width="1" height="1" fill="#596070" />
<rect x="51" y="0" width="1" height="1" fill="#596070" />
<rect x="52" y="0" width="1" height="1" fill="#596070" />
<rect x="53" y="0" width="1" height="1" fill="#596070" />
<rect x="54" y="0" width="1" height="1" fill="#596070" />
<rect x="55" y="0" width="1" height="1" fill="#596070" />
<rect x="56" y="0" width="1" height="1" fill="#596070" />
<rect x="57" y="0" width="1" height="1" fill="#596070" />
<rect x="58" y="0" width="1" height="1" fill="#596070" />
<rect x="59" y="0" width="1" height="1" fill="#596070" />
<rect x="60" y="0" width="1" height="1" fill="#596070" />
<rect x="61" y="0" width="1" height="1" fill="#596070" />
<rect x="62" y="0" width="1" height="1" fill="#596070" />
<rect x="63" y="0" width="1" height="1" fill="#596070" />
<rect x="64" y="0" width="1" height="1" fill="#596070" />
<rect x="65" y="0" width="1" height="1" fill="#596070" />
<rect x="66" y="0" width="1" height="1" fill="#596070" />
<rect x="67" y="0" width="1" height="1" fill="#596070" />
<rect x="68" y="0" width="1" height="1" fill="#596070" />
<rect x="69" y="0" width="1" height="1" fill="#596070" />
<rect x="70" y="0" width="1" height="1" fill="#596070" />
<rect x="71" y="0" width="1" height="1" fill="#596070" />
<rect x="72" y="0" width="1" height="1" fill="#596070" />
<rect x="73" y="0" width="1" height="1" fill="#596070" />
<rect x="74" y="0" width="1" height="1" fill="#596070" />
<rect x="75" y="0" width="1" height="1" fill="#596070" />
<rect x="76" y="0" width="1" height="1" fill="#596070" />
<rect x="77" y="0" width="1" height="1" fill="#596070" />
<rect x="78" y="0" width="1" height="1" fill="#596070" />
<rect x="79" y="0" width="1" height="1" fill="#596070" />
<rect x="80" y="0" width="1" height="1" fill="#596070" />
<rect x="81" y="0" width="1" height="1" fill="#596070" />
<rect x="82" y="0" width="1" height="1" fill="#596070" />
<rect x="83" y="0" width="1" height="1" fill="#596070" />
<rect x="84" y="0" width="1" height="1" fill="#596070" />
<rect x="85" y="0" width="1" height="1" fill="#596070" />
<rect x="86" y="0" width="1" height="1" fill="#596070" />
<rect x="87" y="0" width="1" height="1" fill="#596070" />
<rect x="0" y="1" width="1" height="1" fill="#596070" />
<rect x="1" y="1" width="1" height="1" fill="#596070" />
<rect x="87" y="1" width="1" height="1" fill="#596070" />
<rect x="88" y="1" width="1" height="1" fill="#596070" />
<rect x="0" y="2" width="1" height="1" fill="#596070" />
<rect x="88" y="2" width="1" height="1" fill="#596070" />
<rect x="0" y="3" width="1" height="1" fill="#596070" />
<rect x="88" y="3" width="1" height="1" fill="#596070" />
<rect x="0" y="4" width="1" height="1" fill="#596070" />
<rect x="88" y="4" width="1" height="1" fill="#596070" />
<rect x="0" y="5" width="1" height="1" fill="#596070" />
<rect x="88" y="5" width="1" height="1" fill="#596070" />
<rect x="0" y="6" width="1" height="1" fill="#596070" />
<rect x="88" y="6" width="1" height="1" fill="#596070" />
<rect x="0" y="7" width="1" height="1" fill="#596070" />
<rect x="88" y="7" width="1" height="1" fill="#596070" />
<rect x="0" y="8" width="1" height="1" fill="#596070" />
<rect x="88" y="8" width="1" height="1" fill="#596070" />
<rect x="0" y="9" width="1" height="1" fill="#596070" />
<rect x="1" y="9" width="1" height="1" fill="#596070" />
<rect x="87" y="9" width="1" height="1" fill="#596070" />
<rect x="88" y="9" width="1" height="1" fill="#596070" />
<rect x="0" y="10" width="1" height="1" fill="#1F1F2B" />
<rect x="1" y="10" width="1" height="1" fill="#596070" />
<rect x="2" y="10" width="1" height="1" fill="#596070" />
<rect x="3" y="10" width="1" height="1" fill="#596070" />
<rect x="4" y="10" width="1" height="1" fill="#596070" />
<rect x="5" y="10" width="1" height="1" fill="#596070" />
<rect x="6" y="10" width="1" height="1" fill="#596070" />
<rect x="7" y="10" width="1" height="1" fill="#596070" />
<rect x="8" y="10" width="1" height="1" fill="#596070" />
<rect x="9" y="10" width="1" height="1" fill="#596070" />
<rect x="10" y="10" width="1" height="1" fill="#596070" />
<rect x="11" y="10" width="1" height="1" fill="#596070" />
<rect x="12" y="10" width="1" height="1" fill="#596070" />
<rect x="13" y="10" width="1" height="1" fill="#596070" />
<rect x="14" y="10" width="1" height="1" fill="#596070" />
<rect x="15" y="10" width="1" height="1" fill="#596070" />
<rect x="16" y="10" width="1" height="1" fill="#596070" />
<rect x="17" y="10" width="1" height="1" fill="#596070" />
<rect x="18" y="10" width="1" height="1" fill="#596070" />
<rect x="19" y="10" width="1" height="1" fill="#596070" />
<rect x="20" y="10" width="1" height="1" fill="#596070" />
<rect x="21" y="10" width="1" height="1" fill="#596070" />
<rect x="22" y="10" width="1" height="1" fill="#596070" />
<rect x="23" y="10" width="1" height="1" fill="#596070" />
<rect x="24" y="10" width="1" height="1" fill="#596070" />
<rect x="25" y="10" width="1" height="1" fill="#596070" />
<rect x="26" y="10" width="1" height="1" fill="#596070" />
<rect x="27" y="10" width="1" height="1" fill="#596070" />
<rect x="28" y="10" width="1" height="1" fill="#596070" />
<rect x="29" y="10" width="1" height="1" fill="#596070" />
<rect x="30" y="10" width="1" height="1" fill="#596070" />
<rect x="31" y="10" width="1" height="1" fill="#596070" />
<rect x="32" y="10" width="1" height="1" fill="#596070" />
<rect x="33" y="10" width="1" height="1" fill="#596070" />
<rect x="34" y="10" width="1" height="1" fill="#596070" />
<rect x="35" y="10" width="1" height="1" fill="#596070" />
<rect x="36" y="10" width="1" height="1" fill="#596070" />
<rect x="37" y="10" width="1" height="1" fill="#596070" />
<rect x="38" y="10" width="1" height="1" fill="#596070" />
<rect x="39" y="10" width="1" height="1" fill="#596070" />
<rect x="40" y="10" width="1" height="1" fill="#596070" />
<rect x="41" y="10" width="1" height="1" fill="#596070" />
<rect x="42" y="10" width="1" height="1" fill="#596070" />
<rect x="43" y="10" width="1" height="1" fill="#596070" />
<rect x="44" y="10" width="1" height="1" fill="#596070" />
<rect x="45" y="10" width="1" height="1" fill="#596070" />
<rect x="46" y="10" width="1" height="1" fill="#596070" />
<rect x="47" y="10" width="1" height="1" fill="#596070" />
<rect x="48" y="10" width="1" height="1" fill="#596070" />
<rect x="49" y="10" width="1" height="1" fill="#596070" />
<rect x="50" y="10" width="1" height="1" fill="#596070" />
<rect x="51" y="10" width="1" height="1" fill="#596070" />
<rect x="52" y="10" width="1" height="1" fill="#596070" />
<rect x="53" y="10" width="1" height="1" fill="#596070" />
<rect x="54" y="10" width="1" height="1" fill="#596070" />
<rect x="55" y="10" width="1" height="1" fill="#596070" />
<rect x="56" y="10" width="1" height="1" fill="#596070" />
<rect x="57" y="10" width="1" height="1" fill="#596070" />
<rect x="58" y="10" width="1" height="1" fill="#596070" />
<rect x="59" y="10" width="1" height="1" fill="#596070" />
<rect x="60" y="10" width="1" height="1" fill="#596070" />
<rect x="61" y="10" width="1" height="1" fill="#596070" />
<rect x="62" y="10" width="1" height="1" fill="#596070" />
<rect x="63" y="10" width="1" height="1" fill="#596070" />
<rect x="64" y="10" width="1" height="1" fill="#596070" />
<rect x="65" y="10" width="1" height="1" fill="#596070" />
<rect x="66" y="10" width="1" height="1" fill="#596070" />
<rect x="67" y="10" width="1" height="1" fill="#596070" />
<rect x="68" y="10" width="1" height="1" fill="#596070" />
<rect x="69" y="10" width="1" height="1" fill="#596070" />
<rect x="70" y="10" width="1" height="1" fill="#596070" />
<rect x="71" y="10" width="1" height="1" fill="#596070" />
<rect x="72" y="10" width="1" height="1" fill="#596070" />
<rect x="73" y="10" width="1" height="1" fill="#596070" />
<rect x="74" y="10" width="1" height="1" fill="#596070" />
<rect x="75" y="10" width="1" height="1" fill="#596070" />
<rect x="76" y="10" width="1" height="1" fill="#596070" />
<rect x="77" y="10" width="1" height="1" fill="#596070" />
<rect x="78" y="10" width="1" height="1" fill="#596070" />
<rect x="79" y="10" width="1" height="1" fill="#596070" />
<rect x="80" y="10" width="1" height="1" fill="#596070" />
<rect x="81" y="10" width="1" height="1" fill="#596070" />
<rect x="82" y="10" width="1" height="1" fill="#596070" />
<rect x="83" y="10" width="1" height="1" fill="#596070" />
<rect x="84" y="10" width="1" height="1" fill="#596070" />
<rect x="85" y="10" width="1" height="1" fill="#596070" />
<rect x="86" y="10" width="1" height="1" fill="#596070" />
<rect x="87" y="10" width="1" height="1" fill="#596070" />
<rect x="88" y="10" width="1" height="1" fill="#1F1F2B" />
<rect x="1" y="11" width="1" height="1" fill="#1F1F2B" />
<rect x="2" y="11" width="1" height="1" fill="#1F1F2B" />
<rect x="3" y="11" width="1" height="1" fill="#1F1F2B" />
<rect x="4" y="11" width="1" height="1" fill="#1F1F2B" />
<rect x="5" y="11" width="1" height="1" fill="#1F1F2B" />
<rect x="6" y="11" width="1" height="1" fill="#1F1F2B" />
<rect x="7" y="11" width="1" height="1" fill="#1F1F2B" />
<rect x="8" y="11" width="1" height="1" fill="#1F1F2B" />
<rect x="9" y="11" width="1" height="1" fill="#1F1F2B" />
<rect x="10" y="11" width="1" height="1" fill="#1F1F2B" />
<rect x="11" y="11" width="1" height="1" fill="#1F1F2B" />
<rect x="12" y="11" width="1" height="1" fill="#1F1F2B" />
<rect x="13" y="11" width="1" height="1" fill="#1F1F2B" />
<rect x="14" y="11" width="1" height="1" fill="#1F1F2B" />
<rect x="15" y="11" width="1" height="1" fill="#1F1F2B" />
<rect x="16" y="11" width="1" height="1" fill="#1F1F2B" />
<rect x="17" y="11" width="1" height="1" fill="#1F1F2B" />
<rect x="18" y="11" width="1" height="1" fill="#1F1F2B" />
<rect x="19" y="11" width="1" height="1" fill="#1F1F2B" />
<rect x="20" y="11" width="1" height="1" fill="#1F1F2B" />
<rect x="21" y="11" width="1" height="1" fill="#1F1F2B" />
<rect x="22" y="11" width="1" height="1" fill="#1F1F2B" />
<rect x="23" y="11" width="1" height="1" fill="#1F1F2B" />
<rect x="24" y="11" width="1" height="1" fill="#1F1F2B" />
<rect x="25" y="11" width="1" height="1" fill="#1F1F2B" />
<rect x="26" y="11" width="1" height="1" fill="#1F1F2B" />
<rect x="27" y="11" width="1" height="1" fill="#1F1F2B" />
<rect x="28" y="11" width="1" height="1" fill="#1F1F2B" />
<rect x="29" y="11" width="1" height="1" fill="#1F1F2B" />
<rect x="30" y="11" width="1" height="1" fill="#1F1F2B" />
<rect x="31" y="11" width="1" height="1" fill="#1F1F2B" />
<rect x="32" y="11" width="1" height="1" fill="#1F1F2B" />
<rect x="33" y="11" width="1" height="1" fill="#1F1F2B" />
<rect x="34" y="11" width="1" height="1" fill="#1F1F2B" />
<rect x="35" y="11" width="1" height="1" fill="#1F1F2B" />
<rect x="36" y="11" width="1" height="1" fill="#1F1F2B" />
<rect x="37" y="11" width="1" height="1" fill="#1F1F2B" />
<rect x="38" y="11" width="1" height="1" fill="#1F1F2B" />
<rect x="39" y="11" width="1" height="1" fill="#1F1F2B" />
<rect x="40" y="11" width="1" height="1" fill="#1F1F2B" />
<rect x="41" y="11" width="1" height="1" fill="#1F1F2B" />
<rect x="42" y="11" width="1" height="1" fill="#1F1F2B" />
<rect x="43" y="11" width="1" height="1" fill="#1F1F2B" />
<rect x="44" y="11" width="1" height="1" fill="#1F1F2B" />
<rect x="45" y="11" width="1" height="1" fill="#1F1F2B" />
<rect x="46" y="11" width="1" height="1" fill="#1F1F2B" />
<rect x="47" y="11" width="1" height="1" fill="#1F1F2B" />
<rect x="48" y="11" width="1" height="1" fill="#1F1F2B" />
<rect x="49" y="11" width="1" height="1" fill="#1F1F2B" />
<rect x="50" y="11" width="1" height="1" fill="#1F1F2B" />
<rect x="51" y="11" width="1" height="1" fill="#1F1F2B" />
<rect x="52" y="11" width="1" height="1" fill="#1F1F2B" />
<rect x="53" y="11" width="1" height="1" fill="#1F1F2B" />
<rect x="54" y="11" width="1" height="1" fill="#1F1F2B" />
<rect x="55" y="11" width="1" height="1" fill="#1F1F2B" />
<rect x="56" y="11" width="1" height="1" fill="#1F1F2B" />
<rect x="57" y="11" width="1" height="1" fill="#1F1F2B" />
<rect x="58" y="11" width="1" height="1" fill="#1F1F2B" />
<rect x="59" y="11" width="1" height="1" fill="#1F1F2B" />
<rect x="60" y="11" width="1" height="1" fill="#1F1F2B" />
<rect x="61" y="11" width="1" height="1" fill="#1F1F2B" />
<rect x="62" y="11" width="1" height="1" fill="#1F1F2B" />
<rect x="63" y="11" width="1" height="1" fill="#1F1F2B" />
<rect x="64" y="11" width="1" height="1" fill="#1F1F2B" />
<rect x="65" y="11" width="1" height="1" fill="#1F1F2B" />
<rect x="66" y="11" width="1" height="1" fill="#1F1F2B" />
<rect x="67" y="11" width="1" height="1" fill="#1F1F2B" />
<rect x="68" y="11" width="1" height="1" fill="#1F1F2B" />
<rect x="69" y="11" width="1" height="1" fill="#1F1F2B" />
<rect x="70" y="11" width="1" height="1" fill="#1F1F2B" />
<rect x="71" y="11" width="1" height="1" fill="#1F1F2B" />
<rect x="72" y="11" width="1" height="1" fill="#1F1F2B" />
<rect x="73" y="11" width="1" height="1" fill="#1F1F2B" />
<rect x="74" y="11" width="1" height="1" fill="#1F1F2B" />
<rect x="75" y="11" width="1" height="1" fill="#1F1F2B" />
<rect x="76" y="11" width="1" height="1" fill="#1F1F2B" />
<rect x="77" y="11" width="1" height="1" fill="#1F1F2B" />
<rect x="78" y="11" width="1" height="1" fill="#1F1F2B" />
<rect x="79" y="11" width="1" height="1" fill="#1F1F2B" />
<rect x="80" y="11" width="1" height="1" fill="#1F1F2B" />
<rect x="81" y="11" width="1" height="1" fill="#1F1F2B" />
<rect x="82" y="11" width="1" height="1" fill="#1F1F2B" />
<rect x="83" y="11" width="1" height="1" fill="#1F1F2B" />
<rect x="84" y="11" width="1" height="1" fill="#1F1F2B" />
<rect x="85" y="11" width="1" height="1" fill="#1F1F2B" />
<rect x="86" y="11" width="1" height="1" fill="#1F1F2B" />
<rect x="87" y="11" width="1" height="1" fill="#1F1F2B" />
</svg>