<?xml version="1.0" encoding="UTF-8" ?>
<svg version="1.1" width="41" height="11" xmlns="http://www.w3.org/2000/svg" shape-rendering="crispEdges">
<rect x="0" y="0" width="1" height="1" fill="#596070" />
<rect x="1" y="0" width="1" height="1" fill="#596070" />
<rect x="2" y="0" width="1" height="1" fill="#596070" />
<rect x="3" y="0" width="1" height="1" fill="#596070" />
<rect x="4" y="0" width="1" height="1" fill="#596070" />
<rect x="5" y="0" width="1" height="1" fill="#596070" />
<rect x="6" y="0" width="1" height="1" fill="#596070" />
<rect x="9" y="0" width="1" height="1" fill="#596070" />
<rect x="10" y="0" width="1" height="1" fill="#596070" />
<rect x="11" y="0" width="1" height="1" fill="#596070" />
<rect x="12" y="0" width="1" height="1" fill="#596070" />
<rect x="13" y="0" width="1" height="1" fill="#596070" />
<rect x="14" y="0" width="1" height="1" fill="#596070" />
<rect x="15" y="0" width="1" height="1" fill="#596070" />
<rect x="18" y="0" width="1" height="1" fill="#596070" />
<rect x="19" y="0" width="1" height="1" fill="#596070" />
<rect x="20" y="0" width="1" height="1" fill="#596070" />
<rect x="22" y="0" width="1" height="1" fill="#596070" />
<rect x="23" y="0" width="1" height="1" fill="#596070" />
<rect x="24" y="0" width="1" height="1" fill="#596070" />
<rect x="27" y="0" width="1" height="1" fill="#596070" />
<rect x="28" y="0" width="1" height="1" fill="#596070" />
<rect x="29" y="0" width="1" height="1" fill="#596070" />
<rect x="30" y="0" width="1" height="1" fill="#596070" />
<rect x="31" y="0" width="1" height="1" fill="#596070" />
<rect x="32" y="0" width="1" height="1" fill="#596070" />
<rect x="35" y="0" width="1" height="1" fill="#596070" />
<rect x="36" y="0" width="1" height="1" fill="#596070" />
<rect x="37" y="0" width="1" height="1" fill="#596070" />
<rect x="38" y="0" width="1" height="1" fill="#596070" />
<rect x="39" y="0" width="1" height="1" fill="#596070" />
<rect x="40" y="0" width="1" height="1" fill="#596070" />
<rect x="0" y="1" width="1" height="1" fill="#596070" />
<rect x="6" y="1" width="1" height="1" fill="#596070" />
<rect x="9" y="1" width="1" height="1" fill="#596070" />
<rect x="15" y="1" width="1" height="1" fill="#596070" />
<rect x="18" y="1" width="1" height="1" fill="#596070" />
<rect x="20" y="1" width="1" height="1" fill="#596070" />
<rect x="22" y="1" width="1" height="1" fill="#596070" />
<rect x="24" y="1" width="1" height="1" fill="#596070" />
<rect x="27" y="1" width="1" height="1" fill="#596070" />
<rect x="32" y="1" width="1" height="1" fill="#596070" />
<rect x="35" y="1" width="1" height="1" fill="#596070" />
<rect x="40" y="1" width="1" height="1" fill="#596070" />
<rect x="0" y="2" width="1" height="1" fill="#596070" />
<rect x="6" y="2" width="1" height="1" fill="#596070" />
<rect x="9" y="2" width="1" height="1" fill="#596070" />
<rect x="15" y="2" width="1" height="1" fill="#596070" />
<rect x="18" y="2" width="1" height="1" fill="#596070" />
<rect x="20" y="2" width="1" height="1" fill="#596070" />
<rect x="22" y="2" width="1" height="1" fill="#596070" />
<rect x="24" y="2" width="1" height="1" fill="#596070" />
<rect x="27" y="2" width="1" height="1" fill="#596070" />
<rect x="32" y="2" width="1" height="1" fill="#596070" />
<rect x="35" y="2" width="1" height="1" fill="#596070" />
<rect x="40" y="2" width="1" height="1" fill="#596070" />
<rect x="0" y="3" width="1" height="1" fill="#596070" />
<rect x="3" y="3" width="1" height="1" fill="#596070" />
<rect x="4" y="3" width="1" height="1" fill="#596070" />
<rect x="5" y="3" width="1" height="1" fill="#596070" />
<rect x="6" y="3" width="1" height="1" fill="#596070" />
<rect x="9" y="3" width="1" height="1" fill="#596070" />
<rect x="10" y="3" width="1" height="1" fill="#596070" />
<rect x="11" y="3" width="1" height="1" fill="#596070" />
<rect x="13" y="3" width="1" height="1" fill="#596070" />
<rect x="14" y="3" width="1" height="1" fill="#596070" />
<rect x="15" y="3" width="1" height="1" fill="#596070" />
<rect x="18" y="3" width="1" height="1" fill="#596070" />
<rect x="20" y="3" width="1" height="1" fill="#596070" />
<rect x="22" y="3" width="1" height="1" fill="#596070" />
<rect x="24" y="3" width="1" height="1" fill="#596070" />
<rect x="27" y="3" width="1" height="1" fill="#596070" />
<rect x="29" y="3" width="1" height="1" fill="#596070" />
<rect x="30" y="3" width="1" height="1" fill="#596070" />
<rect x="31" y="3" width="1" height="1" fill="#596070" />
<rect x="32" y="3" width="1" height="1" fill="#596070" />
<rect x="35" y="3" width="1" height="1" fill="#596070" />
<rect x="37" y="3" width="1" height="1" fill="#596070" />
<rect x="38" y="3" width="1" height="1" fill="#596070" />
<rect x="39" y="3" width="1" height="1" fill="#596070" />
<rect x="40" y="3" width="1" height="1" fill="#596070" />
<rect x="0" y="4" width="1" height="1" fill="#596070" />
<rect x="6" y="4" width="1" height="1" fill="#596070" />
<rect x="9" y="4" width="1" height="1" fill="#1F1F2B" />
<rect x="10" y="4" width="1" height="1" fill="#1F1F2B" />
<rect x="11" y="4" width="1" height="1" fill="#596070" />
<rect x="13" y="4" width="1" height="1" fill="#596070" />
<rect x="14" y="4" width="1" height="1" fill="#1F1F2B" />
<rect x="15" y="4" width="1" height="1" fill="#1F1F2B" />
<rect x="18" y="4" width="1" height="1" fill="#596070" />
<rect x="20" y="4" width="1" height="1" fill="#596070" />
<rect x="22" y="4" width="1" height="1" fill="#596070" />
<rect x="24" y="4" width="1" height="1" fill="#596070" />
<rect x="27" y="4" width="1" height="1" fill="#596070" />
<rect x="29" y="4" width="1" height="1" fill="#596070" />
<rect x="30" y="4" width="1" height="1" fill="#1F1F2B" />
<rect x="31" y="4" width="1" height="1" fill="#1F1F2B" />
<rect x="32" y="4" width="1" height="1" fill="#1F1F2B" />
<rect x="35" y="4" width="1" height="1" fill="#596070" />
<rect x="37" y="4" width="1" height="1" fill="#596070" />
<rect x="38" y="4" width="1" height="1" fill="#1F1F2B" />
<rect x="39" y="4" width="1" height="1" fill="#1F1F2B" />
<rect x="40" y="4" width="1" height="1" fill="#1F1F2B" />
<rect x="0" y="5" width="1" height="1" fill="#596070" />
<rect x="6" y="5" width="1" height="1" fill="#596070" />
<rect x="11" y="5" width="1" height="1" fill="#596070" />
<rect x="13" y="5" width="1" height="1" fill="#596070" />
<rect x="18" y="5" width="1" height="1" fill="#596070" />
<rect x="20" y="5" width="1" height="1" fill="#596070" />
<rect x="22" y="5" width="1" height="1" fill="#596070" />
<rect x="24" y="5" width="1" height="1" fill="#596070" />
<rect x="27" y="5" width="1" height="1" fill="#596070" />
<rect x="29" y="5" width="1" height="1" fill="#596070" />
<rect x="30" y="5" width="1" height="1" fill="#596070" />
<rect x="31" y="5" width="1" height="1" fill="#596070" />
<rect x="35" y="5" width="1" height="1" fill="#596070" />
<rect x="37" y="5" width="1" height="1" fill="#596070" />
<rect x="38" y="5" width="1" height="1" fill="#596070" />
<rect x="39" y="5" width="1" height="1" fill="#596070" />
<rect x="0" y="6" width="1" height="1" fill="#596070" />
<rect x="1" y="6" width="1" height="1" fill="#596070" />
<rect x="2" y="6" width="1" height="1" fill="#596070" />
<rect x="3" y="6" width="1" height="1" fill="#596070" />
<rect x="6" y="6" width="1" height="1" fill="#596070" />
<rect x="11" y="6" width="1" height="1" fill="#596070" />
<rect x="13" y="6" width="1" height="1" fill="#596070" />
<rect x="18" y="6" width="1" height="1" fill="#596070" />
<rect x="20" y="6" width="1" height="1" fill="#596070" />
<rect x="21" y="6" width="1" height="1" fill="#596070" />
<rect x="22" y="6" width="1" height="1" fill="#596070" />
<rect x="24" y="6" width="1" height="1" fill="#596070" />
<rect x="27" y="6" width="1" height="1" fill="#596070" />
<rect x="31" y="6" width="1" height="1" fill="#596070" />
<rect x="35" y="6" width="1" height="1" fill="#596070" />
<rect x="39" y="6" width="1" height="1" fill="#596070" />
<rect x="0" y="7" width="1" height="1" fill="#596070" />
<rect x="6" y="7" width="1" height="1" fill="#596070" />
<rect x="11" y="7" width="1" height="1" fill="#596070" />
<rect x="13" y="7" width="1" height="1" fill="#596070" />
<rect x="18" y="7" width="1" height="1" fill="#596070" />
<rect x="24" y="7" width="1" height="1" fill="#596070" />
<rect x="27" y="7" width="1" height="1" fill="#596070" />
<rect x="29" y="7" width="1" height="1" fill="#596070" />
<rect x="30" y="7" width="1" height="1" fill="#596070" />
<rect x="31" y="7" width="1" height="1" fill="#596070" />
<rect x="35" y="7" width="1" height="1" fill="#596070" />
<rect x="37" y="7" width="1" height="1" fill="#596070" />
<rect x="38" y="7" width="1" height="1" fill="#596070" />
<rect x="39" y="7" width="1" height="1" fill="#596070" />
<rect x="0" y="8" width="1" height="1" fill="#596070" />
<rect x="6" y="8" width="1" height="1" fill="#596070" />
<rect x="11" y="8" width="1" height="1" fill="#596070" />
<rect x="13" y="8" width="1" height="1" fill="#596070" />
<rect x="18" y="8" width="1" height="1" fill="#596070" />
<rect x="24" y="8" width="1" height="1" fill="#596070" />
<rect x="27" y="8" width="1" height="1" fill="#596070" />
<rect x="29" y="8" width="1" height="1" fill="#596070" />
<rect x="30" y="8" width="1" height="1" fill="#1F1F2B" />
<rect x="31" y="8" width="1" height="1" fill="#1F1F2B" />
<rect x="35" y="8" width="1" height="1" fill="#596070" />
<rect x="37" y="8" width="1" height="1" fill="#596070" />
<rect x="38" y="8" width="1" height="1" fill="#1F1F2B" />
<rect x="39" y="8" width="1" height="1" fill="#1F1F2B" />
<rect x="0" y="9" width="1" height="1" fill="#596070" />
<rect x="1" y="9" width="1" height="1" fill="#596070" />
<rect x="2" y="9" width="1" height="1" fill="#596070" />
<rect x="3" y="9" width="1" height="1" fill="#596070" />
<rect x="4" y="9" width="1" height="1" fill="#596070" />
<rect x="5" y="9" width="1" height="1" fill="#596070" />
<rect x="6" y="9" width="1" height="1" fill="#596070" />
<rect x="11" y="9" width="1" height="1" fill="#596070" />
<rect x="12" y="9" width="1" height="1" fill="#596070" />
<rect x="13" y="9" width="1" height="1" fill="#596070" />
<rect x="18" y="9" width="1" height="1" fill="#596070" />
<rect x="19" y="9" width="1" height="1" fill="#596070" />
<rect x="20" y="9" width="1" height="1" fill="#596070" />
<rect x="21" y="9" width="1" height="1" fill="#596070" />
<rect x="22" y="9" width="1" height="1" fill="#596070" />
<rect x="23" y="9" width="1" height="1" fill="#596070" />
<rect x="24" y="9" width="1" height="1" fill="#596070" />
<rect x="27" y="9" width="1" height="1" fill="#596070" />
<rect x="28" y="9" width="1" height="1" fill="#596070" />
<rect x="29" y="9" width="1" height="1" fill="#596070" />
<rect x="35" y="9" width="1" height="1" fill="#596070" />
<rect x="36" y="9" width="1" height="1" fill="#596070" />
<rect x="37" y="9" width="1" height="1" fill="#596070" />
<rect x="0" y="10" width="1" height="1" fill="#1F1F2B" />
<rect x="1" y="10" width="1" height="1" fill="#1F1F2B" />
<rect x="2" y="10" width="1" height="1" fill="#1F1F2B" />
<rect x="3" y="10" width="1" height="1" fill="#1F1F2B" />
<rect x="4" y="10" width="1" height="1" fill="#1F1F2B" />
<rect x="5" y="10" width="1" height="1" fill="#1F1F2B" />
<rect x="6" y="10" width="1" height="1" fill="#1F1F2B" />
<rect x="11" y="10" width="1" height="1" fill="#1F1F2B" />
<rect x="12" y="10" width="1" height="1" fill="#1F1F2B" />
<rect x="13" y="10" width="1" height="1" fill="#1F1F2B" />
<rect x="18" y="10" width="1" height="1" fill="#1F1F2B" />
<rect x="19" y="10" width="1" height="1" fill="#1F1F2B" />
<rect x="20" y="10" width="1" height="1" fill="#1F1F2B" />
<rect x="21" y="10" width="1" height="1" fill="#1F1F2B" />
<rect x="22" y="10" width="1" height="1" fill="#1F1F2B" />
<rect x="23" y="10" width="1" height="1" fill="#1F1F2B" />
<rect x="24" y="10" width="1" height="1" fill="#1F1F2B" />
<rect x="27" y="10" width="1" height="1" fill="#1F1F2B" />
<rect x="28" y="10" width="1" height="1" fill="#1F1F2B" />
<rect x="29" y="10" width="1" height="1" fill="#1F1F2B" />
<rect x="35" y="10" width="1" height="1" fill="#1F1F2B" />
<rect x="36" y="10" width="1" height="1" fill="#1F1F2B" />
<rect x="37" y="10" width="1" height="1" fill="#1F1F2B" />
</svg>